<svg viewBox="0 0 1574.71 636.39" xmlns="http://www.w3.org/2000/svg"><path d="m511.38 278.94c0 131.02-104.3 235.32-235.33 235.32s-235.31-104.3-235.31-235.32 104.29-235.32 235.31-235.32 235.33 104.3 235.33 235.32" fill="#532f20"/><path d="m276.06 41.71c-131.02 0-237.23 106.21-237.23 237.23s106.21 237.23 237.23 237.23 237.23-106.21 237.23-237.23-106.21-237.23-237.23-237.23m0 13.18c30.26 0 59.59 5.92 87.21 17.6 13.28 5.62 26.08 12.57 38.05 20.66 11.88 8.01 23.03 17.22 33.18 27.35 10.14 10.14 19.35 21.31 27.37 33.18 8.09 11.98 15.04 24.78 20.65 38.05 11.68 27.61 17.6 56.96 17.6 87.21s-5.92 59.59-17.6 87.21c-5.61 13.28-12.56 26.08-20.65 38.06-8.02 11.86-17.23 23.02-27.37 33.16s-21.3 19.35-33.18 27.37c-11.97 8.09-24.77 15.04-38.05 20.65-27.61 11.69-56.95 17.6-87.21 17.6s-59.59-5.91-87.21-17.6c-13.28-5.61-26.08-12.56-38.05-20.65-11.88-8.02-23.03-17.22-33.18-27.37-10.14-10.14-19.35-21.3-27.37-33.16-8.09-11.98-15.04-24.78-20.65-38.06-11.68-27.61-17.6-56.95-17.6-87.21s5.92-59.59 17.6-87.21c5.61-13.27 12.56-26.07 20.65-38.05 8.02-11.86 17.23-23.03 27.37-33.18 10.14-10.13 21.3-19.35 33.18-27.35 11.97-8.09 24.77-15.04 38.05-20.66 27.61-11.68 56.95-17.6 87.21-17.6" fill="#efc31a"/><path d="m336.53 166.19v48.42h15.25l-20.86 84.28-31.58-132.7h-46.57l-31.57 132.7-20.87-84.28h15.26v-48.42h-85.84v48.44h12.37l52.5 204.61h48.11l33.32-129.89 33.34 129.89h48.1l52.5-204.61h12.36v-48.44z" fill="#efc31a"/><g fill="#532f20"><path d="m799.03 290.49-26.32 125.84h37.06l26.34-125.84z"/><path d="m877.28 339.32c2.47-4.22 5.48-7.85 8.92-10.78 3.42-2.93 7.31-5.2 11.56-6.78 4.28-1.59 8.9-2.38 13.71-2.38 2.8 0 5.22.19 7.17.58 1.97.39 3.66.87 5.03 1.4 1.34.53 2.47 1.1 3.35 1.69 1.08.74 2.07 1.4 2.98 2.02 1.03.69 2.01 1.3 2.95 1.79 1.33.69 2.83 1.04 4.47 1.04 2.31 0 4.34-.53 6-1.58 1.24-.78 2.4-1.68 3.47-2.69l15-14.94-2.02-2.5c-2.07-2.54-4.57-4.9-7.44-6.98-2.86-2.07-6.11-3.86-9.7-5.33-3.55-1.46-7.5-2.63-11.72-3.45-4.25-.82-8.9-1.24-13.84-1.24-10.14 0-19.88 1.58-28.97 4.68-9.12 3.12-17.43 7.56-24.7 13.18-7.28 5.64-13.53 12.44-18.55 20.22-5.04 7.79-8.58 16.43-10.52 25.71-1.89 9.09-2.18 17.64-.82 25.46 1.37 7.89 4.34 14.84 8.8 20.63 4.48 5.81 10.52 10.4 17.96 13.68 7.36 3.24 16.2 4.88 26.24 4.88 10.88 0 20.82-1.69 29.57-5.01 8.83-3.37 16.75-8.44 23.54-15.06l2.57-2.5-11.27-14.02-.04-.06c-.87-1.01-1.89-1.75-3.08-2.2-2.25-.85-4.88-.78-7.38.22-1.16.48-2.3 1.07-3.4 1.81-1.85 1.29-3.64 2.37-5.35 3.22-1.66.82-3.41 1.52-5.17 2.04-1.75.52-3.66.9-5.65 1.11-2.11.23-4.44.35-6.94.35-4.09 0-7.77-.74-10.98-2.21-3.15-1.43-5.77-3.54-7.77-6.29-2.04-2.79-3.41-6.3-4.1-10.46-.69-4.25-.46-9.23.71-14.81 1.13-5.35 2.95-10.2 5.45-14.45"/><path d="m1057.93 290.5-10.34 49.47h-43.64l10.34-49.47h-37.06l-26.35 125.85h37.08l10.47-50.03h43.64l-10.46 50.03h37.06l26.34-125.85z"/><path d="m1110.88 290.51-26.33 125.84h37.06l26.35-125.84z"/><path d="m1243.99 410.41c4-1.66 7.98-3.68 11.85-6.01l1.63-.98 11.69-55.88h-52.48l-3.87 18.47c-.52 2.51.06 4.84 1.63 6.55 1.5 1.65 3.71 2.49 6.59 2.49h8.25l-2.4 11.43c-2.1.66-4.29 1.23-6.52 1.66-2.96.61-6.39.9-10.17.9-4.8 0-9.07-.78-12.72-2.34-3.55-1.53-6.46-3.76-8.67-6.65-2.21-2.9-3.71-6.57-4.44-10.87-.75-4.41-.52-9.58.69-15.38 1.1-5.25 2.89-10.06 5.3-14.29 2.38-4.18 5.32-7.8 8.71-10.77 3.37-2.95 7.24-5.26 11.49-6.88 4.29-1.63 8.99-2.46 13.96-2.46 2.77 0 5.27.13 7.44.38 2.11.25 4.09.65 5.9 1.18 1.79.53 3.54 1.23 5.2 2.08 1.75.88 3.6 1.97 5.49 3.16 3.95 2.63 8.58 2.92 12.75.78 1.71-.88 3.28-2.11 4.7-3.64l13.41-14.72-2.17-2.38c-2.23-2.44-4.88-4.74-7.9-6.82-3.02-2.1-6.49-3.9-10.32-5.4-3.8-1.47-8.08-2.66-12.73-3.51-4.64-.85-9.75-1.29-15.22-1.29-10.53 0-20.55 1.58-29.78 4.68-9.26 3.12-17.64 7.56-24.93 13.19-7.3 5.65-13.5 12.46-18.41 20.24-4.91 7.77-8.38 16.42-10.32 25.66-1.92 9.16-1.97 17.79-.13 25.65 1.82 7.89 5.26 14.81 10.2 20.59 4.93 5.75 11.31 10.3 18.97 13.55 7.62 3.24 16.39 4.87 26.07 4.87h.01c5.25 0 10.29-.25 14.97-.75 4.73-.51 9.32-1.3 13.66-2.37 4.36-1.07 8.6-2.46 12.6-4.13"/><path d="m1325.48 363.61 15.25-26.78c1.08-1.72 2.27-3.73 3.54-5.95.29 1.86.53 3.53.77 4.99l4.13 27.74h-23.68zm44.39-73.09h-35.09l-78.28 125.85h29.09c3.18 0 6.11-.84 8.71-2.49 2.51-1.59 4.44-3.47 5.71-5.64l10.52-18.44h42.6l2.7 17.8c.4 2.59 1.66 4.73 3.76 6.36 2.02 1.59 4.74 2.4 8.09 2.4h27.8l-25.07-123.16-.55-2.69z"/><path d="m1513.38 290.53-13.8 65.98c-.16.71-.3 1.43-.43 2.18l-39.58-62.43-.03-.03c-.71-1.07-1.4-1.95-2.08-2.66-.79-.82-1.71-1.47-2.7-1.95-.94-.45-2.04-.75-3.25-.91h-.13c-.97-.13-2.15-.19-3.51-.19h-18.83l-26.33 125.85h33.44l13.97-66.79c.09-.4.16-.81.25-1.23l39.29 61.9c1.42 2.27 3.16 3.9 5.19 4.83 1.88.85 4.23 1.29 6.99 1.29h18.66l26.33-125.85h-33.44z"/><path d="m747.6 290.48c-1.65 0-3.24.29-4.71.87s-2.89 1.46-4.19 2.63c-1.18 1.07-2.37 2.46-3.61 4.28l-57.64 86.15c-2.05 3.06-4.13 6.29-6.18 9.55-.2.33-.42.68-.62 1.01-.01-.06-.03-.12-.04-.19-.65-3.27-1.39-6.44-2.18-9.41l-21.62-86.57c-.51-1.88-1.14-3.35-1.94-4.49-.91-1.3-2.05-2.28-3.44-2.92-1.3-.61-2.82-.92-4.51-.92h-34.81l-37.2 177.8h39.19s20.66-98.75 20.66-98.75l18.27 70.4c.09.33.17.65.27.97l3.37 12.92h23.48l7.37-10.46c.77-.87 1.5-1.81 2.18-2.82l4.8-7.1 1.47-2.08h-.06s41.49-61.38 41.49-61.38l-20.58 98.32h39.2l37.2-177.8h-35.62z"/><path d="m657.06 160.98 4.73 103.56 36.03-.04 84.12-174.83-31.69-.06c-3.64 0-7.34 1.65-10.36 3.81-2.96 2.11-5.13 4.65-6.44 7.59l-38.4 86.96c-.12.27-.25.56-.36.85-.01-.1-.01-.19-.01-.27l-3.94-79.4h.01l-1-19.57h-33.71l-7.27 16.24-39.28 81.47c-.22.43-.42.87-.62 1.3 0-.16 0-.33-.01-.49l-.98-87.24c0-6.47-4.87-11.49-12.66-11.49h-30.53l7.01 175.12h35.71l49.68-103.52z"/><path d="m743.14 264.41h88.86l5.99-28.62-51.79-.02 4.32-20.65h39.67l5.82-27.83h-39.66l4.2-20.09h51.79l5.98-28.64h-88.85z"/><path d="m906.34 234.59c-2.69 1.73-6.34 2.62-10.84 2.62-3.47 0-6.36-.45-8.61-1.31-2.44-.94-4.58-1.98-6.34-3.11-1.92-1.21-3.67-2.36-5.2-3.37-3.74-2.49-8.29-2.8-12.49-.84-1.85.85-3.41 2.01-4.62 3.42l-13.6 15.38 2.01 2.34c2.2 2.56 4.93 4.9 8.14 6.97 3.12 2.01 6.59 3.76 10.3 5.22 3.71 1.45 7.67 2.59 11.76 3.38 4.13.81 8.32 1.21 12.46 1.21h.01c7.54 0 14.64-1.1 21.08-3.27 6.47-2.17 12.27-5.22 17.23-9.05 4.96-3.84 9.15-8.41 12.41-13.58 3.28-5.16 5.56-10.78 6.81-16.7 1.14-5.45 1.2-10.25.19-14.26-1.01-3.99-2.77-7.43-5.22-10.26-2.38-2.73-5.32-5.01-8.73-6.78-3.16-1.62-6.5-3.06-9.91-4.28-3.31-1.17-6.62-2.25-9.86-3.22-2.99-.9-5.64-1.88-7.86-2.95-1.94-.91-3.41-1.98-4.38-3.16-.42-.52-.85-1.31-.51-3.01.56-2.72 1.88-4.71 4.13-6.29 2.4-1.68 5.95-2.53 10.58-2.53 2.76 0 5.14.33 7.08 1 2.11.71 3.96 1.52 5.49 2.38 1.72.97 3.27 1.84 4.62 2.62 3.74 2.15 8.25 2.18 11.79.07 1.47-.88 2.96-2.17 4.39-3.81l12.14-15.53-2.07-2.2c-2.04-2.15-4.48-4.1-7.25-5.78-2.7-1.66-5.74-3.09-8.99-4.28-3.27-1.18-6.81-2.08-10.56-2.69-3.71-.59-7.66-.9-11.7-.9-7.33 0-14.18 1.07-20.36 3.18s-11.72 4.99-16.44 8.55c-4.78 3.6-8.74 7.76-11.79 12.38-3.08 4.64-5.14 9.49-6.17 14.41-1.27 6.01-1.43 11.21-.49 15.46.94 4.28 2.64 7.92 5.09 10.84 2.37 2.85 5.3 5.17 8.73 6.92 3.18 1.62 6.55 3.01 10 4.1 3.32 1.07 6.65 2.05 9.84 2.93 2.96.81 5.58 1.75 7.76 2.79 1.88.88 3.29 1.98 4.21 3.25.68.94.82 2.24.46 3.97-.77 3.66-2.31 6.2-4.71 7.75"/><path d="m981.71 264.58h36.91l20.2-96.56h35.51l6.12-29.29h-107.91l-6.13 29.29h35.51z"/><path d="m1154.02 264.59 5.99-28.64h-51.79l4.32-20.66 39.67.01 5.82-27.83h-39.66l4.2-20.08h51.79l5.99-28.65h-88.86l-26.33 125.85z"/><path d="m1223.29 166.81h8.37c6.47.01 11.11 1.18 13.41 3.44 2.17 2.11 2.77 4.96 1.94 8.99-.45 2.18-1.23 4.22-2.28 6.08-1 1.75-2.34 3.29-4.02 4.61-1.72 1.34-3.86 2.43-6.34 3.21-2.59.82-5.71 1.24-9.28 1.24h-7.56l5.77-27.57zm-20.46 97.78 9.16-43.77h4.03c2.17 0 2.99.35 3.24.49.45.27.87.84 1.18 1.63l13.77 34.38c1.36 3.31 4.65 7.27 12.66 7.27h32.86l-20.69-46.7c-.98-2.24-2.31-4.18-3.93-5.79 2.12-1 4.15-2.1 6.05-3.29 3.92-2.46 7.43-5.29 10.43-8.44 3.02-3.16 5.58-6.68 7.56-10.42 1.99-3.74 3.44-7.76 4.32-11.95 1.16-5.53 1.2-10.75.14-15.51-1.1-4.94-3.64-9.26-7.54-12.86-3.77-3.47-9.02-6.2-15.56-8.09-6.36-1.85-14.36-2.79-23.8-2.79h-44.46l-26.33 125.85h36.91z"/><path d="m1321.5 264.6 13.97-66.79c.09-.4.17-.81.25-1.23l39.29 61.89c1.42 2.28 3.16 3.92 5.19 4.84 1.88.85 4.23 1.29 6.99 1.29h18.66l26.33-125.85h-33.44l-13.8 65.98c-.14.71-.29 1.45-.43 2.18l-39.58-62.41-.03-.04c-.72-1.08-1.4-1.95-2.07-2.66-.81-.82-1.72-1.47-2.7-1.95-.92-.43-1.98-.72-3.14-.9h-.13c-1-.14-2.23-.2-3.64-.2h-18.83l-26.33 125.85z"/><path d="m848.89 487.9c-.56 2.66-1.45 5.09-2.62 7.23-1.17 2.11-2.62 3.93-4.29 5.4-1.66 1.47-3.58 2.63-5.72 3.44s-4.49 1.23-7.01 1.23-4.61-.4-6.34-1.18c-1.71-.78-3.01-1.82-3.97-3.22-.97-1.39-1.59-3.14-1.86-5.14-.27-2.1-.14-4.49.42-7.14l9.7-46.18h-17.34l-9.57 45.58c-.97 4.58-1.1 8.89-.4 12.8.71 3.99 2.23 7.49 4.51 10.39s5.36 5.2 9.15 6.82c3.74 1.6 8.19 2.41 13.22 2.41s9.75-.81 14.09-2.37c4.35-1.58 8.28-3.8 11.69-6.62s6.31-6.21 8.63-10.09c2.31-3.87 3.97-8.15 4.93-12.69l9.71-46.24h-17.34l-9.57 45.58z"/><path d="m936.88 488.56c-.14.71-.29 1.47-.43 2.25l-26.95-45.52c-.35-.56-.66-1.03-.98-1.39-.38-.43-.82-.78-1.3-1.03-.46-.25-1-.4-1.59-.48-.48-.06-1.05-.09-1.75-.09h-8.67l-16.2 77.18h15.65l9.81-46.7c.12-.56.23-1.17.35-1.81l26.86 45.36c.66 1.14 1.47 1.98 2.4 2.46.9.46 2.01.69 3.41.69h8.55l16.21-77.18h-15.66l-9.71 46.24z"/><path d="m984.33 442.31-16.2 77.18h17.4l16.18-77.18z"/><path d="m1080.1 442.32c-1.52 0-2.89.42-4.09 1.26-1.13.78-1.99 1.66-2.59 2.64l-27.2 45.11c-.9 1.49-1.78 3.09-2.64 4.83-.17-1.55-.38-2.99-.64-4.29l-8.31-45.16c-.26-1.26-.84-2.3-1.75-3.11-.94-.85-2.24-1.29-3.86-1.29h-13.31l15.65 77.18h14.9l48.06-77.18h-14.23z"/><path d="m1106.4 442.31-16.2 77.18h50.95l2.98-14.19h-33.51l3.71-17.73h26.4l2.91-13.78h-26.41l3.63-17.31h33.51l2.96-14.17z"/><path d="m1203.43 474.19c-1.36 1.03-3.02 1.84-4.93 2.43-1.95.59-4.19.9-6.66.9h-6.81l4.48-21.34h7.69c4.74 0 8.05.87 9.84 2.57 1.69 1.62 2.18 3.96 1.52 7.15-.36 1.69-.97 3.27-1.84 4.67-.84 1.39-1.95 2.6-3.29 3.63m18.17-25.5c-2.14-2.04-5.09-3.64-8.77-4.75-3.6-1.08-8.09-1.62-13.38-1.62h-24.36l-16.2 77.18h17.34l6.07-28.91h4.71c1.49 0 2.05.25 2.23.35.35.2.65.61.92 1.18l10.91 23.68c.53 1.17 1.33 2.08 2.34 2.73 1.01.64 2.3.97 3.81.97h15.2l-14.29-29.64c-.55-1.08-1.2-2.07-1.95-2.9 1.91-.71 3.7-1.55 5.38-2.51 2.47-1.43 4.68-3.12 6.56-5.01 1.88-1.91 3.48-4.06 4.77-6.4s2.23-4.87 2.77-7.5c.69-3.34.75-6.46.16-9.28-.61-2.92-2.04-5.46-4.22-7.56"/><path d="m1287.43 443.66c-3.66-1.43-7.85-2.15-12.5-2.15-4.1 0-7.95.64-11.42 1.88-3.47 1.26-6.56 2.93-9.2 5-2.66 2.1-4.88 4.51-6.6 7.21-1.73 2.7-2.92 5.53-3.53 8.41-.75 3.58-.84 6.68-.29 9.19.56 2.56 1.6 4.74 3.09 6.46 1.45 1.69 3.22 3.08 5.3 4.12 1.95.98 3.99 1.85 6.07 2.54 2.01.68 4.05 1.33 6.04 1.91 1.84.55 3.45 1.21 4.8 1.98 1.21.69 2.14 1.55 2.72 2.53.52.87.62 2.08.3 3.61-.65 3.09-2.07 5.39-4.34 7.02-2.3 1.66-5.32 2.5-8.96 2.5-2.4 0-4.38-.32-5.9-.94-1.59-.65-2.95-1.37-4.05-2.15-1.16-.82-2.17-1.58-3.02-2.27-2.01-1.62-4.29-1.78-6.27-.72-.74.39-1.42.9-2.01 1.47l-6.39 7.72.79 1.01c1.24 1.58 2.75 3.02 4.47 4.29 1.71 1.26 3.61 2.36 5.68 3.25 2.05.9 4.28 1.59 6.62 2.07s4.78.72 7.28.72c4.35 0 8.41-.65 12.07-1.95s6.95-3.12 9.77-5.38c2.85-2.28 5.23-4.99 7.1-8.05 1.86-3.06 3.19-6.39 3.93-9.88.68-3.29.74-6.17.13-8.55-.61-2.4-1.66-4.45-3.16-6.13-1.45-1.62-3.22-2.98-5.27-4.03-1.94-1-3.97-1.89-6.05-2.64-2.04-.74-4.05-1.43-6.01-2.08-1.85-.62-3.48-1.31-4.86-2.08-1.23-.69-2.15-1.5-2.76-2.44-.52-.79-.64-1.82-.36-3.15.26-1.17.69-2.25 1.32-3.22.61-.97 1.42-1.81 2.41-2.5 1.01-.71 2.23-1.29 3.6-1.69 1.39-.42 2.99-.62 4.78-.62 1.95 0 3.61.23 4.91.69 1.36.49 2.53 1.04 3.48 1.62 1.01.64 1.89 1.2 2.63 1.72 2.01 1.39 4.1 1.33 5.77.43.79-.43 1.52-1.1 2.2-2.05l5.58-7.53-.84-.97c-2.3-2.64-5.35-4.73-9.05-6.17"/><path d="m1317.64 442.31-16.19 77.18h17.38l16.2-77.18z"/><path d="m1350.73 442.31-3.05 14.51h22.85l-13.15 62.67h17.34l13.15-62.67h22.74l3.04-14.51z"/><path d="m1477.65 442.32c-1.52 0-2.89.43-4.06 1.27-1.04.75-1.89 1.58-2.51 2.43l-18.93 24.71c-1.11 1.46-2.12 2.88-3.01 4.22-.1.16-.19.3-.29.46-.32-1.33-.74-2.75-1.24-4.23l-8.66-24.7c-.38-1.13-.97-2.08-1.73-2.83-.91-.88-2.2-1.33-3.84-1.33h-14.75l18.76 46.98-6.34 30.2h17.33l6.23-29.64 38.89-47.54h-15.82z"/><path d="m1506.92 518.73c7.5 0 13.63-5.77 13.63-14.2s-6.13-14.2-13.63-14.2-13.55 5.77-13.55 14.2 6.13 14.2 13.55 14.2m0-2.67c-6.05 0-10.68-4.68-10.68-11.53s4.62-11.6 10.68-11.6 10.74 4.83 10.74 11.6-4.68 11.53-10.74 11.53m-5.2-4.39h2.96v-5.04h2.96l2.51 5.04h3.32l-3.32-5.98c1.59-.58 2.67-2.24 2.67-3.97 0-3.45-2.6-4.68-5.62-4.68h-5.49v14.64zm2.96-7.36v-4.83h2.02c2.15 0 2.95.94 2.95 2.37 0 1.59-1.16 2.46-3.09 2.46z"/></g></svg>